<svg width="32" height="32" viewBox="0 0 32 32" fill="none" xmlns="http://www.w3.org/2000/svg">
<path fill-rule="evenodd" clip-rule="evenodd" d="M30.2222 3.2H24.8889V1.6C24.8889 1.17565 24.7016 0.768687 24.3682 0.468629C24.0348 0.168571 23.5826 0 23.1111 0C22.6396 0 22.1874 0.168571 21.854 0.468629C21.5206 0.768687 21.3333 1.17565 21.3333 1.6V3.2H17.7778V1.6C17.7778 1.17565 17.5905 0.768687 17.2571 0.468629C16.9237 0.168571 16.4715 0 16 0C15.5285 0 15.0763 0.168571 14.7429 0.468629C14.4095 0.768687 14.2222 1.17565 14.2222 1.6V3.2H10.6667V1.6C10.6667 1.17565 10.4794 0.768687 10.146 0.468629C9.81257 0.168571 9.36038 0 8.88889 0C8.41739 0 7.96521 0.168571 7.63181 0.468629C7.29841 0.768687 7.11111 1.17565 7.11111 1.6V3.2H1.77778C1.30628 3.2 0.854097 3.36857 0.520699 3.66863C0.187301 3.96869 0 4.37565 0 4.8V27.2C0 28.473 0.561903 29.6939 1.5621 30.5941C2.56229 31.4943 3.91885 32 5.33333 32H26.6667C28.0812 32 29.4377 31.4943 30.4379 30.5941C31.4381 29.6939 32 28.473 32 27.2V4.8C32 4.37565 31.8127 3.96869 31.4793 3.66863C31.1459 3.36857 30.6937 3.2 30.2222 3.2ZM5.33333 29.8H26.6667H26.8444C28.2804 29.8 29.4444 28.6359 29.4444 27.2V5.4H24.8889V8C24.8889 8.42435 24.7016 8.83131 24.3682 9.13137C24.0348 9.43143 23.5826 9.6 23.1111 9.6C22.6396 9.6 22.1874 9.43143 21.854 9.13137C21.5206 8.83131 21.3333 8.42435 21.3333 8V5.4H17.7778V8C17.7778 8.42435 17.5905 8.83131 17.2571 9.13137C16.9237 9.43143 16.4715 9.6 16 9.6C15.5285 9.6 15.0763 9.43143 14.7429 9.13137C14.4095 8.83131 14.2222 8.42435 14.2222 8V5.4H10.6667V8C10.6667 8.42435 10.4794 8.83131 10.146 9.13137C9.81257 9.43143 9.36038 9.6 8.88889 9.6C8.41739 9.6 7.96521 9.43143 7.63181 9.13137C7.29841 8.83131 7.11111 8.42435 7.11111 8V5.4H2.55556V27.2C2.55556 28.6359 3.71961 29.8 5.15555 29.8H5.33333Z" fill="#4C82FF"/>
<path d="M23.1111 18.2H8.88889C8.41739 18.2 7.96521 18.3686 7.63181 18.6686C7.29841 18.9687 7.11111 19.3757 7.11111 19.8C7.11111 20.2243 7.29841 20.6313 7.63181 20.9314C7.96521 21.2314 8.41739 21.4 8.88889 21.4H23.1111C23.5826 21.4 24.0348 21.2314 24.3682 20.9314C24.7016 20.6313 24.8889 20.2243 24.8889 19.8C24.8889 19.3757 24.7016 18.9687 24.3682 18.6686C24.0348 18.3686 23.5826 18.2 23.1111 18.2Z" fill="#4C82FF"/>
<path d="M23.1111 12.8H12.4444C11.9729 12.8 11.5208 12.9686 11.1874 13.2686C10.854 13.5687 10.6667 13.9757 10.6667 14.4C10.6667 14.8243 10.854 15.2313 11.1874 15.5314C11.5208 15.8314 11.9729 16 12.4444 16H23.1111C23.5826 16 24.0348 15.8314 24.3682 15.5314C24.7016 15.2313 24.8889 14.8243 24.8889 14.4C24.8889 13.9757 24.7016 13.5687 24.3682 13.2686C24.0348 12.9686 23.5826 12.8 23.1111 12.8Z" fill="#4C82FF"/>
<path d="M23.1111 24.2H8.88886C8.41737 24.2 7.96518 24.3685 7.63178 24.6686C7.29839 24.9686 7.11108 25.3756 7.11108 25.8C7.11108 26.2243 7.29839 26.6313 7.63178 26.9313C7.96518 27.2314 8.41737 27.4 8.88886 27.4H23.1111C23.5826 27.4 24.0348 27.2314 24.3682 26.9313C24.7016 26.6313 24.8889 26.2243 24.8889 25.8C24.8889 25.3756 24.7016 24.9686 24.3682 24.6686C24.0348 24.3685 23.5826 24.2 23.1111 24.2Z" fill="#4C82FF"/>
</svg>
